# xmcd
#
# Track frame offsets: 
#        150
#        17990
#        34672
#        50915
#        67562
#        81710
#        97050
#        111210
#        126767
#        141915
#        158780
#        173670
#        188010
#        200952
#        216215
#        230105
#        243632
#        258847
#        279975
#        297927
#        316445
#        329157
#
# Disc length: 4588 seconds
#
# Revision: 0
# Processed by: cddbd v1.5.1PL2 Copyright (c) Steve Scherf et al.
# Submitted via: ExactAudioCopy v0.95b3
#
DISCID=5a11ea16
DTITLE=Lee Greenwood - The Best of Lee Greenwood: Wind Beneath My Wing
DTITLE=s
DYEAR=1998
DGENRE=Country
TTITLE0=The Wind Beneath My Wings
TTITLE1=Somebody's Gonna Love You
TTITLE2=It Turns Me Inside Out
TTITLE3=Ring on Her Finger, Time on Her Hands
TTITLE4=She's Lying
TTITLE5=Ain't No Trick (It Takes Magic)
TTITLE6=I.O.U.
TTITLE7=A Love Song
TTITLE8=Going, Going, Gone
TTITLE9=Fool's Gold
TTITLE10=Dixie Road
TTITLE11=God Bless the U.S.A.
TTITLE12=You've Got a Good Love Coming to Me
TTITLE13=I Don't Mind the Thorns (If You're the Rose)
TTITLE14=Don't Underestimate My Love for You
TTITLE15=Hearts Aren't Made to Break (They're Made to Love)
TTITLE16=Mornin' Ride
TTITLE17=If Only for One Night
TTITLE18=Didn't We
TTITLE19=(I Found) Love in Time
TTITLE20=Even Love Can't Save Us Now
TTITLE21=Love Me Like I'm Leaving Tonight
EXTD=
EXTT0=
EXTT1=
EXTT2=
EXTT3=
EXTT4=
EXTT5=
EXTT6=
EXTT7=
EXTT8=
EXTT9=
EXTT10=
EXTT11=
EXTT12=
EXTT13=
EXTT14=
EXTT15=
EXTT16=
EXTT17=
EXTT18=
EXTT19=
EXTT20=
EXTT21=
PLAYORDER=
